<?xml version="1.0" encoding="UTF-8"?>
<svg id="Layer_1" data-name="Layer 1" xmlns="http://www.w3.org/2000/svg" version="1.1" viewBox="0 0 102 108">
  <defs>
    <style>
      .cls-1, .cls-2 {
        opacity: .5;
      }

      .cls-3 {
        stroke-miterlimit: 10;
      }

      .cls-3, .cls-4 {
        stroke: #3a4374;
      }

      .cls-3, .cls-5, .cls-2 {
        fill: #fff;
      }

      .cls-6 {
        fill: #231f20;
      }

      .cls-6, .cls-5, .cls-2, .cls-7, .cls-8 {
        stroke-width: 0px;
      }

      .cls-4 {
        fill: none;
        stroke-linecap: round;
        stroke-linejoin: round;
        stroke-width: 1px;
      }

      .cls-7 {
        fill: #3a4374;
      }

      .cls-8 {
        fill: #c0c5dc;
      }
    </style>
  </defs>
  <g class="cls-1">
    <path class="cls-4" d="M48.7,15.6c-22.9,0-41.5,18.6-41.5,41.6,0,23,18.5,41.6,41.5,41.7,22.9,0,41.5-18.6,41.5-41.6,0-11-4.3-21.6-12.1-29.5-7.8-7.8-18.3-12.2-29.3-12.2Z"/>
    <ellipse class="cls-6" cx="70.5" cy="43.7" rx="1.9" ry="2.9"/>
    <path class="cls-7" d="M0,44.9l97.4-21.6-19.2-5.6S67.9.4,65.1,0c-2.8-.4-53.1,10.4-53.1,10.4l-3.2,24.3L0,44.9ZM20.3,103.5l-11-17.5,48.1-8.3,3.3,16.7,4.9-15.4,24.6,4.9-5,19.5H20.3Z"/>
    <path class="cls-3" d="M82,65.6l4.4-.6,2.3,16.6c.2,1.2-.6,2.2-1.8,2.4h-.3c-1.2.2-2.2-.6-2.4-1.8,0,0,0,0,0,0l-2.3-16.6Z"/>
    <path class="cls-2" d="M0,0"/>
    <path class="cls-3" d="M78.6,50.9l7.2-1,2.2,16.3-7.2,1-2.2-16.3Z"/>
    <path class="cls-2" d="M0,0"/>
    <path class="cls-5" d="M85.6,78h.7c1.8-.3,3.4.9,3.7,2.7,0,0,0,0,0,0l3,21.8c.2,1.8-1,3.4-2.8,3.7h-.7c-1.8.3-3.4-.9-3.7-2.7,0,0,0,0,0,0l-3-21.8c-.2-1.8,1-3.4,2.8-3.7h0Z"/>
    <path class="cls-7" d="M88.4,106.8c-1.5,0-2.7-1.1-2.9-2.6l-3.2-23.2c-.2-1.6.9-3.1,2.5-3.3l2.1-.3c1.6-.2,3.1.9,3.3,2.5h0s3.2,23.3,3.2,23.3c.2,1.6-.9,3.1-2.5,3.3l-2.1.3h-.4s0,0,0,0ZM87.3,78.2c0,0-.2,0-.3,0l-2.1.3c-.6,0-1.1.4-1.4.8-.3.5-.5,1-.4,1.6l3.2,23.2c.2,1.2,1.2,2,2.4,1.8l2.1-.3c1.2-.2,2-1.2,1.8-2.4l-3.2-23.2c-.1-1.1-1-1.9-2.1-1.9h0Z"/>
    <ellipse class="cls-5" cx="81.6" cy="46.3" rx="19.2" ry="19.3"/>
    <path class="cls-7" d="M81.6,66c-10.5,0-19.1-8.3-19.6-18.8-.5-10.5,7.4-19.5,17.8-20.5,10.4-1,19.8,6.5,21.2,16.9,1.5,10.7-6,20.7-16.7,22.2-.9.1-1.8.2-2.7.2ZM81.6,27.4c-.9,0-1.7,0-2.6.2-7.5,1-13.7,6.5-15.6,13.9-1.9,7.4.8,15.2,6.8,19.8,6.1,4.6,14.3,5.1,20.9,1.2,6.6-3.9,10.2-11.3,9.1-18.9-1.3-9.3-9.2-16.2-18.6-16.3,0,0,0,0,0,0Z"/>
    <ellipse class="cls-5" cx="81.6" cy="46.3" rx="15.6" ry="15.6"/>
    <path class="cls-7" d="M81.6,62.3c-8.6,0-15.7-6.8-16-15.5-.3-8.6,6.3-16,14.9-16.5,8.6-.6,16.1,5.7,17,14.3.9,8.6-5.2,16.3-13.7,17.5-.7.1-1.5.2-2.2.2h0ZM81.6,31.1c-.7,0-1.4,0-2.1.1-8.1,1.1-13.8,8.5-13,16.6.8,8.2,8,14.2,16.1,13.6,8.2-.6,14.4-7.5,14.1-15.7-.3-8.2-7-14.7-15.1-14.7h0Z"/>
    <path class="cls-3" d="M99.9,89.7c-1.1-1.3-2.4-2.4-3.9-3.2-4.6-2.4-9.8-2.3-14.6-.8-1.7.5-5,1.3-5.2,3.6,0,.9.6,1.7,1.5,2,.9.2,1.8.3,2.7.1-1.3,0-2.5.3-3.6.9-1,.7-1.6,2.3-.8,3.3.4.4.9.7,1.4.8,1.2.3,2.4.3,3.6,0-1.3.2-2.5.6-3.6,1.1-.7.3-1.5.9-1.4,1.6,0,.7.8,1.1,1.5,1.3,1.4.5,2.8.7,4.3.8-1.3.2-2.4.7-3.5,1.5-1.6,1.3-1.6,3.9.6,4.6.7.2,1.4.3,2.1.2,6.4,0,14-.8,18.4-6.1,2.1-2.5,2.9-5.9,2-9.1-.3-1-.8-1.9-1.4-2.7h0Z"/>
    <path class="cls-2" d="M0,0"/>
    <path class="cls-3" d="M55.4,46.6s9.7,14.7,3.8,14.9c-5.9.2-6.4-1.3-6.4-1.3"/>
    <path class="cls-2" d="M0,0"/>
    <ellipse class="cls-8" cx="82.5" cy="45.8" rx="3.5" ry="6"/>
    <ellipse class="cls-7" cx="39.3" cy="45.8" rx="2.7" ry="4.9"/>
  </g>
</svg>